{"title":"Star.Wars.Rebels.S02E16.480p.x264-ZED","uid":13674731,"size":131137180,"categoryP":"video","categoryS":"tv_shows","magnet":"?xt=urn:btih:5a67431eb3d83fe2dbf40266bf2de01e983b8d58&amp;dn=Star.Wars.Rebels.S02E16.480p.x264-ZED&amp;tr=udp%3A%2F%2Ftracker.leechers-paradise.org%3A6969&amp;tr=udp%3A%2F%2Fzer0day.ch%3A1337&amp;tr=udp%3A%2F%2Fopen.demonii.com%3A1337&amp;tr=udp%3A%2F%2Ftracker.coppersurfer.tk%3A6969&amp;tr=udp%3A%2F%2Fexodus.desync.com%3A6969","seeders":0,"leechers":0,"uploader":"medorc","files":2,"time":1456380213,"description":"Screenshot \nhttps://yuq.me/users/48/909/fEoS6khzwB.jpg\r\n\r\nGeneral\r\nComplete name : Star_Wars_Rebels S02E16 The_Honorable_Ones 480p x264.mp4\r\nFormat : MPEG-4\r\nFormat profile : Base Media\r\nCodec ID : isom\r\nFile size : 125 MiB\r\nDuration : 22mn 3s\r\nOverall bit rate mode : Variable\r\nOverall bit rate : 793 Kbps\r\nWriting application : MASTER ZED ;)\r\n\r\nVideo\r\nID : 1\r\nFormat : AVC\r\nFormat/Info : Advanced Video Codec\r\nFormat profile :   \r\nFormat settings, CABAC : Yes\r\nFormat settings, ReFrames : 16 frames\r\nCodec ID : avc1\r\nCodec ID/Info : Advanced Video Coding\r\nDuration : 22mn 3s\r\nBit rate : 659 Kbps\r\nWidth : 852 pixels\r\nHeight : 480 pixels\r\nDisplay aspect ratio : 16:9\r\nFrame rate mode : Constant\r\nFrame rate : 24.000 fps\r\nColor space : YUV\r\nChroma subsampling : 4:2:0\r\nBit depth : 8 bits\r\nScan type : Progressive\r\nBits/(Pixel*Frame) : 0.067\r\nStream size : 104 MiB (83%)\r\nWriting library : x264 core 142 r2479 dd79a61\r\nColor primaries : BT.709\r\nTransfer characteristics : BT.709\r\nMatrix coefficients : BT.709\r\n\r\nAudio\r\nID : 2\r\nFormat : AAC\r\nFormat/Info : Advanced Audio Codec\r\nFormat profile : LC\r\nCodec ID : 40\r\nDuration : 22mn 3s\r\nBit rate mode : Variable\r\nBit rate : 128 Kbps\r\nMaximum bit rate : 200 Kbps\r\nChannel(s) : 2 channels\r\nChannel positions : Front: L R\r\nSampling rate : 48.0 KHz\r\nCompression mode : Lossy\r\nStream size : 20.2 MiB (16%)\r\n\r\nText\r\nID : 3\r\nFormat : Timed Text\r\nMuxing mode : sbtl\r\nCodec ID : tx3g\r\nDuration : 22mn 3s\r\nBit rate mode : Variable\r\nBit rate : 63 bps\r\nStream size : 10.1 KiB (0%)\r\nLanguage : English","torrent":{"xt":"urn:btih:5a67431eb3d83fe2dbf40266bf2de01e983b8d58","amp;dn":"Star.Wars.Rebels.S02E16.480p.x264-ZED","amp;tr":["udp%3A%2F%2Ftracker.leechers-paradise.org%3A6969","udp%3A%2F%2Fzer0day.ch%3A1337","udp%3A%2F%2Fopen.demonii.com%3A1337","udp%3A%2F%2Ftracker.coppersurfer.tk%3A6969","udp%3A%2F%2Fexodus.desync.com%3A6969"],"infoHash":"5a67431eb3d83fe2dbf40266bf2de01e983b8d58","infoHashBuffer":{"type":"Buffer","data":[90,103,67,30,179,216,63,226,219,244,2,102,191,45,224,30,152,59,141,88]},"announce":[],"urlList":[]}}